<svg width="120" height="13" viewBox="0 0 120 13" fill="none" xmlns="http://www.w3.org/2000/svg">
    <path d="M4.88607 2.594C6.46807 2.594 7.57407 3.756 7.57407 5.394V10H5.92207V5.73C5.92207 4.75 5.29207 4.05 4.39607 4.05C3.43007 4.05 2.63207 4.75 2.63207 5.618V10H0.924072V0.213997H2.63207V3.756C3.06607 3.056 3.92007 2.594 4.88607 2.594Z"
          fill="white"/>
    <path d="M17.4503 2.762H18.5003V10H17.4503V8.838C17.0303 9.608 16.0923 10.168 15.0703 10.168C13.4743 10.168 12.3543 9.006 12.3543 7.368V2.762H13.4043V7.228C13.4043 8.404 14.1463 9.23 15.2103 9.23C16.4283 9.23 17.4503 8.376 17.4503 7.368V2.762Z"
          fill="white"/>
    <path d="M31.2655 2.594C32.7775 2.594 33.8415 3.756 33.8415 5.394V10H32.7915V5.534C32.7915 4.358 32.1055 3.532 31.1255 3.532C29.9775 3.532 29.1655 4.302 29.1655 5.394V10H28.1155V5.534C28.1155 4.358 27.4295 3.532 26.4495 3.532C25.3015 3.532 24.4895 4.302 24.4895 5.394V10H23.4395V2.762H24.4895V3.826C24.8535 3.07 25.6375 2.594 26.5895 2.594C27.6815 2.594 28.5355 3.196 28.9275 4.134C29.2215 3.196 30.1735 2.594 31.2655 2.594Z"
          fill="white"/>
    <path d="M41.7029 2.594C43.6769 2.594 44.6429 3.84 44.6429 5.59V10H43.5929V8.866C43.0749 9.72 41.9969 10.168 41.0449 10.168C39.5189 10.168 38.3989 9.286 38.3989 7.858C38.3989 6.416 39.6869 5.45 41.2409 5.45C42.0249 5.45 42.8509 5.618 43.5929 5.856V5.59C43.5929 4.61 43.2009 3.49 41.6329 3.49C40.9049 3.49 40.1769 3.812 39.5189 4.148L39.0989 3.294C40.1349 2.776 41.0029 2.594 41.7029 2.594ZM41.2269 9.244C42.1789 9.244 43.3129 8.754 43.5929 7.732V6.626C42.9349 6.444 42.1929 6.332 41.4089 6.332C40.3309 6.332 39.4209 6.948 39.4209 7.816C39.4209 8.712 40.2049 9.244 41.2269 9.244Z"
          fill="white"/>
    <path d="M53.0323 2.594C54.6283 2.594 55.7483 3.756 55.7483 5.394V10H54.6983V5.534C54.6983 4.358 53.9563 3.532 52.8923 3.532C51.6743 3.532 50.6523 4.386 50.6523 5.394V10H49.6023V2.762H50.6523V3.924C51.0723 3.154 52.0103 2.594 53.0323 2.594Z"
          fill="white"/>
    <path d="M63.8514 8.936L64.3694 9.706C63.9914 10 63.5154 10.168 63.0254 10.168C61.9894 10.168 61.2614 9.398 61.2614 8.32V3.7H60.1274V2.762H61.2614V0.773998H62.3114V2.762H64.0894V3.7H62.3114V8.32C62.3114 8.852 62.6754 9.23 63.0954 9.23C63.4174 9.23 63.6974 9.104 63.8514 8.936Z"
          fill="white"/>
    <path d="M72.0991 2.594C73.6951 2.594 74.8151 3.756 74.8151 5.394V10H73.7651V5.534C73.7651 4.358 73.0231 3.532 71.9591 3.532C70.7411 3.532 69.7191 4.386 69.7191 5.394V10H68.6691V0.213997H69.7191V3.924C70.1391 3.154 71.0771 2.594 72.0991 2.594Z"
          fill="white"/>
    <path d="M80.2582 1.446C79.8662 1.446 79.5582 1.124 79.5582 0.745998C79.5582 0.381998 79.8662 0.0599976 80.2582 0.0599976C80.6362 0.0599976 80.9442 0.381998 80.9442 0.745998C80.9442 1.124 80.6362 1.446 80.2582 1.446ZM79.7262 10V2.762H80.7762V10H79.7262Z"
          fill="white"/>
    <path d="M89.1288 2.594C90.7248 2.594 91.8448 3.756 91.8448 5.394V10H90.7948V5.534C90.7948 4.358 90.0528 3.532 88.9888 3.532C87.7708 3.532 86.7488 4.386 86.7488 5.394V10H85.6988V2.762H86.7488V3.924C87.1688 3.154 88.1068 2.594 89.1288 2.594Z"
          fill="white"/>
    <path d="M102.398 2.762H103.448V9.23C103.448 11.092 101.978 12.408 99.8919 12.408C98.7159 12.408 97.6239 12.002 96.9659 11.442L97.4279 10.616C97.9879 11.148 98.8559 11.47 99.7519 11.47C101.418 11.47 102.398 10.644 102.398 9.23V8.054C101.838 8.936 100.914 9.468 99.7659 9.468C97.8199 9.468 96.4339 8.04 96.4339 6.024C96.4339 4.008 97.8199 2.594 99.7659 2.594C100.914 2.594 101.838 3.126 102.398 4.008V2.762ZM99.9619 8.53C101.39 8.53 102.398 7.494 102.398 6.024C102.398 4.568 101.39 3.532 99.9619 3.532C98.5479 3.532 97.5399 4.568 97.5399 6.024C97.5399 7.494 98.5479 8.53 99.9619 8.53Z"
          fill="white"/>
    <path d="M111.032 10.168C110.024 10.168 108.904 9.79 108.036 9.09L108.582 8.32C109.408 8.922 110.234 9.23 111.032 9.23C111.984 9.23 112.628 8.782 112.628 8.096C112.628 7.312 111.788 7.06 110.808 6.78C109.058 6.276 108.386 5.758 108.386 4.722C108.386 3.406 109.478 2.594 110.92 2.594C111.816 2.594 112.74 2.902 113.51 3.406L113.006 4.218C112.278 3.756 111.564 3.532 110.92 3.532C110.108 3.532 109.436 3.896 109.436 4.596C109.436 5.226 109.968 5.422 111.312 5.856C112.474 6.22 113.678 6.612 113.678 7.984C113.678 9.314 112.53 10.168 111.032 10.168Z"
          fill="white"/>
    <path d="M118.944 10.168C118.51 10.168 118.174 9.818 118.174 9.398C118.174 9.006 118.51 8.656 118.944 8.656C119.35 8.656 119.686 9.006 119.686 9.398C119.686 9.818 119.35 10.168 118.944 10.168Z"
          fill="#FF0000"/>
</svg>
